<svg xmlns="http://www.w3.org/2000/svg" viewBox="0 0 512.002 512.002" preserveAspectRatio="xMidYMid meet">
  <path fill="#484655" d="M457.732 233.944l-27.921-87.283c-19.094-59.69-62.14-109.193-118.098-135.815-7.351-3.497-13.3-5.83-18.191-7.132-18.808-5.006-57.117-4.94-75.91.13-4.885 1.318-10.826 3.672-18.165 7.194-55.867 26.813-98.742 76.464-117.632 136.22l-27.622 87.378c-8.667 27.417-.334 57.422 21.228 76.444l73.701 65.02c-18.181 15.645-28.796 38.481-28.796 62.765v65.637c0 4.143 3.358 7.5 7.5 7.5h256.351c4.143 0 7.5-3.357 7.5-7.5v-65.637c0-24.282-10.614-47.12-28.798-62.766l73.891-65.641c21.495-19.095 29.723-49.129 20.962-76.514z"/>
  <g fill="#35343f">
    <path d="M457.732 233.944l-27.921-87.283c-19.094-59.69-62.14-109.193-118.098-135.815-7.351-3.497-13.3-5.83-18.191-7.132C282.397.753 264.449-.433 247.752.141c10.382.386 20.189 1.574 27.123 3.573 4.516 1.302 10.008 3.635 16.794 7.132 51.659 26.622 91.397 76.125 109.025 135.815l25.776 87.283c8.089 27.386.491 57.42-19.354 76.516l-68.213 65.64c16.787 15.646 26.586 38.483 26.586 62.766v65.637c0 4.143-3.099 7.5-6.924 7.5h25.612c4.143 0 7.5-3.357 7.5-7.5v-65.637c0-24.282-10.614-47.12-28.798-62.766l73.891-65.641c21.495-19.096 29.723-49.13 20.962-76.515z"/>
    <path d="M402.917 301.107L256 433.974 109.085 301.107c-3.652-3.303-4.759-8.584-2.731-13.07.022-.048.043-.096.065-.144 4.76-10.529 13.999-30.238 24.669-48.887 4.11-7.2 8.44-14.249 12.809-20.549 7.21-10.409 14.509-18.779 21.109-22.439 39.778-22.089 142.213-22.089 181.99 0 6.6 3.66 13.899 12.029 21.109 22.439 4.37 6.3 8.7 13.349 12.809 20.549 10.669 18.649 19.909 38.358 24.669 48.887.022.048.043.096.065.144 2.027 4.486.92 9.767-2.731 13.07z"/>
  </g>
  <g fill="#fa9e3e">
    <path d="M298.098 363.879v-96.136h-84.196v96.28l-10.641.018c-7.36.013-14.463 1.099-21.184 3.078L256 433.973l74.228-67.13c-6.706-1.942-13.786-2.997-21.119-2.984l-11.011.02zM400.426 276.753c-5.047-10.658-11.911-24.464-19.512-37.748-2.941-5.152-5.995-10.221-9.095-14.999h-35.033v56.607h49.367c5.21-.001 10.084-1.41 14.273-3.86zM131.087 239.004c-7.601 13.284-14.465 27.09-19.512 37.748 4.189 2.451 9.063 3.86 14.272 3.86h49.367v-56.607h-35.033c-3.099 4.779-6.153 9.849-9.094 14.999z"/>
  </g>
  <path fill="#f0eeee" d="M346.995 196.017c-39.778-22.089-142.212-22.089-181.99 0-6.6 3.66-13.899 12.029-21.109 22.439v12.239c0 17.939 4.21 34.888 11.699 49.917 18.359 36.858 56.427 62.187 100.405 62.187s82.046-25.329 100.405-62.187c7.49-15.029 11.699-31.978 11.699-49.917v-12.239c-7.209-10.41-14.509-18.78-21.109-22.439z"/>
  <g fill="#d9d4d4">
    <path d="M346.995 196.017c-39.778-22.089-142.212-22.089-181.99 0-4.378 2.428-9.065 6.937-13.828 12.73 55.134-9.646 136.739-20.973 209.534 62.045 4.771-12.449 7.394-25.963 7.394-40.096v-12.239c-7.21-10.411-14.51-18.781-21.11-22.44z"/>
    <path d="M346.995 196.017c-.718-.399-1.462-.788-2.22-1.172v47.512c0 53.532-41.88 97.276-94.662 100.273.329.017.656.039.985.053.431.019.862.038 1.295.052 1.198.038 2.399.065 3.607.065h.011c1.221 0 2.436-.027 3.648-.066.335-.011.668-.024 1.002-.038 1.003-.041 2.002-.095 2.998-.162.231-.015.463-.027.694-.044 1.193-.088 2.38-.196 3.563-.321.286-.03.57-.065.855-.098.206-.023.41-.053.616-.078.751-.089 1.501-.18 2.247-.284.294-.041.589-.08.882-.124.463-.068.922-.152 1.383-.225.71-.114 1.422-.22 2.128-.347.154-.028.307-.06.461-.088.563-.104 1.121-.223 1.681-.336.462-.093.927-.179 1.387-.277.302-.065.603-.13.904-.197 1.083-.241 2.161-.494 3.232-.766.072-.018.144-.034.216-.053 1.148-.294 2.288-.611 3.422-.94.271-.079.54-.16.81-.241.944-.282 1.883-.576 2.816-.882.208-.068.418-.134.626-.203.196-.066.388-.139.583-.206.918-.313 1.833-.629 2.74-.965.192-.071.383-.146.574-.218.936-.352 1.866-.717 2.791-1.094.241-.098.482-.195.722-.295 1.094-.455 2.181-.922 3.257-1.41.008-.004.017-.008.025-.012.461-.209.913-.434 1.37-.65.589-.277 1.181-.55 1.765-.837.234-.115.467-.231.7-.348.967-.484 1.928-.979 2.879-1.491.079-.042.159-.083.238-.126 1.04-.562 2.069-1.143 3.089-1.736.191-.111.381-.225.571-.338.868-.512 1.729-1.036 2.583-1.571.17-.106.341-.211.51-.319.999-.634 1.987-1.281 2.964-1.945.097-.066.192-.134.289-.2.101-.069.199-.142.299-.211.772-.532 1.539-1.071 2.297-1.622.191-.139.383-.278.573-.418.002-.001.004-.003.006-.005 1.887-1.389 3.728-2.836 5.522-4.338.177-.148.352-.297.527-.446.805-.683 1.602-1.375 2.387-2.08.091-.082.184-.161.274-.243.203-.183.398-.375.6-.56.671-.615 1.341-1.231 1.997-1.862.127-.123.253-.247.38-.371.488-.474.965-.96 1.445-1.443.243-.245.492-.484.733-.732.144-.147.289-.294.432-.443.552-.572 1.09-1.157 1.63-1.741.268-.288.543-.57.807-.862.025-.028.049-.056.074-.083.67-.742 1.325-1.498 1.975-2.258.083-.097.17-.191.253-.289.148-.174.296-.349.443-.524.004-.004.007-.009.011-.013 1.506-1.793 2.957-3.634 4.35-5.521.004-.005.008-.01.012-.016.124-.168.246-.337.369-.506.344-.472.677-.953 1.014-1.43.267-.379.541-.752.804-1.135.085-.124.172-.245.256-.369.673-.988 1.332-1.987 1.974-2.997.069-.108.136-.218.204-.327.571-.905 1.128-1.819 1.674-2.742.104-.175.208-.35.311-.526 1.197-2.048 2.329-4.139 3.397-6.267.005-.009.01-.018.014-.028.104-.207.207-.414.309-.622.3-.607.592-1.219.881-1.833.035-.074.072-.147.106-.221.11-.235.221-.47.33-.706.33-.718.652-1.441.967-2.167.085-.196.173-.391.257-.587.782-1.829 1.516-3.682 2.203-5.559.018-.049.037-.096.055-.145.027-.075.053-.151.08-.226.313-.867.616-1.738.908-2.614.079-.236.153-.474.23-.71.236-.723.466-1.449.688-2.178.085-.28.168-.562.251-.843.165-.559.322-1.121.479-1.684.041-.148.086-.295.126-.444.076-.279.152-.558.227-.837.199-.751.389-1.505.573-2.262.056-.231.115-.462.169-.694.22-.933.429-1.87.626-2.812.011-.053.023-.105.034-.158.029-.138.052-.278.08-.416.388-1.908.73-3.833 1.02-5.776.004-.026.009-.053.013-.079.02-.137.038-.274.058-.411.057-.393.104-.789.157-1.183.067-.502.139-1.003.199-1.507.026-.214.049-.43.074-.645.096-.84.183-1.683.26-2.529.02-.222.04-.445.059-.668.025-.297.043-.596.066-.893.045-.58.092-1.16.128-1.743.011-.176.023-.351.033-.527.043-.756.072-1.515.1-2.274.01-.279.029-.556.037-.836 0-.015.001-.03.002-.045.032-1.11.049-2.225.049-3.343V218.45c-7.215-10.404-14.515-18.774-21.115-22.433z"/>
  </g>
  <g fill="#19303f">
    <path d="M256 325.51c-4.142 0-7.5-3.357-7.5-7.5v-9.999c0-4.143 3.358-7.5 7.5-7.5 4.143 0 7.5 3.357 7.5 7.5v9.999c0 4.143-3.357 7.5-7.5 7.5zM280.943 297.337c-1.419 0-2.827-.402-4.052-1.188L256 282.736l-20.89 13.412c-1.98 1.273-4.443 1.54-6.651.725l-26.556-9.808c-3.885-1.435-5.872-5.748-4.437-9.634 1.436-3.886 5.748-5.871 9.633-4.437l23.05 8.514 21.797-13.995c2.47-1.586 5.636-1.584 8.104-.001l21.798 13.996 23.05-8.514c3.887-1.435 8.199.552 9.633 4.437 1.436 3.886-.551 8.199-4.437 9.634l-26.556 9.808c-.84.31-1.719.464-2.595.464zM337.496 221.848c-1.919 0-3.839-.732-5.304-2.196-10.858-10.86-28.531-10.86-39.391 0-2.93 2.928-7.678 2.928-10.606 0-2.929-2.93-2.929-7.678 0-10.606 16.71-16.708 43.895-16.708 60.604 0 2.929 2.93 2.929 7.678 0 10.606-1.464 1.464-3.384 2.196-5.303 2.196zM224.502 221.848c-1.919 0-3.839-.732-5.303-2.196-10.859-10.86-28.531-10.86-39.392 0-2.929 2.928-7.678 2.929-10.605-.001-2.929-2.929-2.929-7.678 0-10.605 16.708-16.708 43.895-16.708 60.603 0 2.929 2.929 2.929 7.678 0 10.605-1.464 1.465-3.383 2.197-5.303 2.197z"/>
  </g>
  <path fill="#f0eeee" d="M422.216 405.954c-.024-13.637-11.124-24.715-24.757-24.715h-.043l-138.81.238c-6.613.012-12.825 2.598-17.493 7.282-4.668 4.684-7.233 10.905-7.222 17.518l.169 98.236c.003 1.989.797 3.896 2.206 5.3 1.406 1.401 3.31 2.188 5.294 2.188h.013l173.325-.298c1.989-.004 3.896-.797 5.3-2.206a7.50102 7.50102 0 002.188-5.307l-.17-98.236z"/>
  <path fill="#d9d4d4" d="M422.216 405.954c-.024-13.637-11.124-24.715-24.757-24.715h-.043l-23.058.04c12.998.712 23.366 11.497 23.389 24.675l.169 98.236c.003 1.989-.784 3.897-2.188 5.307-1.404 1.409-3.311 2.202-5.3 2.206l-149.636.257c.254.026.51.041.768.041h.013l173.325-.298c1.989-.004 3.896-.797 5.3-2.206a7.50102 7.50102 0 002.188-5.307l-.17-98.236z"/>
  <path fill="#484655" d="M322.187 474.022c-1.92 0-3.839-.732-5.304-2.197-2.929-2.929-2.929-7.678.001-10.605l7.1-7.1h-9.796c-3.033 0-5.769-1.827-6.929-4.63-1.161-2.803-.52-6.028 1.625-8.174l19.903-19.903c2.93-2.928 7.678-2.928 10.607 0 2.929 2.93 2.929 7.678 0 10.606l-7.102 7.101h9.797c3.033 0 5.769 1.827 6.929 4.63 1.161 2.803.52 6.028-1.626 8.174l-19.903 19.902c-1.463 1.464-3.383 2.196-5.302 2.196z"/>
</svg>
